<?xml version="1.0" standalone="no"?>
<!DOCTYPE svg PUBLIC "-//W3C//DTD SVG 20010904//EN"
 "http://www.w3.org/TR/2001/REC-SVG-20010904/DTD/svg10.dtd">
<svg version="1.0" xmlns="http://www.w3.org/2000/svg"
 width="1310.000000pt" height="1310.000000pt" viewBox="0 0 1310.000000 1310.000000"
 preserveAspectRatio="xMidYMid meet">
<metadata>
Created by potrace 1.16, written by Peter Selinger 2001-2019
</metadata>
<g transform="translate(0.000000,1310.000000) scale(0.100000,-0.100000)"
fill="#000000" stroke="none">
<path d="M0 6550 l0 -6550 6550 0 6550 0 -1 1048 c-1 576 -4 1038 -6 1027 -2
-13 -62 -58 -165 -125 -89 -58 -167 -106 -173 -108 -17 -4 -345 215 -345 230
0 7 -7 56 -15 108 -8 52 -22 140 -30 195 -9 55 -18 112 -20 127 -5 26 -2 28
67 48 40 12 133 39 206 61 l132 39 167 -50 c92 -27 171 -50 175 -50 4 0 8
1150 8 2555 l0 2555 -112 73 c-62 40 -130 83 -150 96 -43 26 -42 23 -63 171
-9 63 -34 229 -56 369 -21 139 -39 257 -39 262 0 4 19 13 43 19 48 13 258 74
330 97 l47 15 0 2169 0 2169 -6550 0 -6550 0 0 -6550z m7923 6182 c9 -10 20
-33 23 -50 4 -18 12 -32 19 -32 6 0 38 -8 71 -19 32 -10 175 -53 317 -96 l258
-77 20 26 c29 37 89 37 118 0 12 -15 21 -37 21 -50 0 -26 -8 -23 521 -180
l227 -66 30 22 c23 17 37 20 61 15 33 -7 61 -38 61 -66 0 -11 13 -21 33 -28
161 -51 808 -241 820 -241 8 0 29 8 45 17 25 14 34 15 60 4 17 -7 37 -27 46
-44 14 -32 20 -34 429 -156 l414 -123 26 26 c28 28 52 32 90 15 25 -11 47 -47
47 -74 0 -9 34 -25 98 -44 169 -52 426 -129 462 -139 19 -6 118 -35 219 -66
166 -50 186 -54 205 -41 83 59 176 -62 98 -127 -28 -23 -29 -26 -65 -313 -20
-159 -53 -413 -72 -563 l-36 -274 26 -23 c32 -31 33 -77 2 -109 -13 -13 -29
-25 -37 -28 -8 -2 -16 -28 -21 -64 -7 -62 -42 -330 -84 -649 -52 -395 -50
-363 -21 -394 45 -47 31 -103 -36 -146 -12 -8 -26 -91 -63 -375 -26 -201 -54
-417 -62 -481 l-15 -116 26 -26 c45 -46 35 -87 -37 -143 -9 -8 -18 -48 -25
-110 -7 -55 -21 -166 -32 -249 -11 -82 -29 -221 -40 -308 l-21 -158 26 -30
c41 -49 33 -96 -21 -130 -24 -14 -34 -28 -34 -45 0 -13 -23 -196 -51 -405
l-50 -380 30 -28 c63 -59 24 -144 -62 -140 -24 2 -50 -1 -58 -6 -18 -11 -378
-246 -441 -288 -30 -20 -43 -34 -35 -38 17 -10 618 -189 633 -189 7 0 15 -4
19 -10 4 -7 -69 -611 -91 -747 -5 -35 -11 -40 -115 -107 -37 -24 -151 -98
-253 -165 -103 -66 -192 -121 -198 -121 -6 0 -43 21 -82 46 -39 26 -152 99
-250 163 -99 64 -191 127 -205 141 -25 23 -29 43 -65 290 -22 146 -42 269 -46
273 -12 14 -170 -92 -170 -114 0 -35 -44 -69 -90 -69 -36 0 -75 -22 -340 -196
-256 -168 -300 -200 -305 -225 -9 -38 -40 -59 -90 -59 -42 0 -41 0 -617 -378
-146 -96 -148 -98 -148 -134 0 -60 -66 -97 -121 -67 -21 11 -80 -25 -546 -332
-95 -63 -224 -148 -288 -189 -91 -60 -115 -80 -115 -98 0 -64 -99 -97 -139
-46 -12 15 -21 32 -21 38 0 6 -28 29 -63 51 -34 22 -172 112 -307 201 -618
406 -565 374 -613 368 -34 -5 -46 -2 -65 16 -12 12 -26 35 -29 52 -6 32 8 22
-608 426 -132 86 -141 90 -162 77 -59 -39 -123 -4 -123 68 l0 42 -137 90 c-76
49 -218 142 -317 207 -144 95 -182 116 -197 108 -51 -28 -119 12 -119 68 0 33
4 30 -404 296 -168 110 -181 117 -207 106 -22 -10 -34 -9 -63 5 -30 15 -37 24
-43 57 -6 40 -9 42 -237 192 -273 180 -275 181 -280 164 -5 -15 -7 -30 -41
-293 -14 -110 -27 -200 -28 -201 -1 0 -40 -26 -87 -56 -47 -30 -158 -103 -248
-162 -89 -58 -167 -106 -171 -106 -9 0 -209 128 -402 257 -52 35 -97 64 -100
65 -6 2 -66 376 -94 578 -4 25 -10 65 -15 90 -5 25 -8 46 -7 46 1 1 139 43
307 93 l305 91 204 -60 c112 -33 206 -58 209 -55 3 3 -19 175 -48 382 -48 346
-55 380 -76 398 -32 29 -38 59 -18 100 19 41 24 0 -62 593 -34 237 -51 332
-60 332 -21 0 -63 43 -70 72 -5 22 0 34 26 60 l32 32 -71 501 c-58 406 -75
502 -89 512 -44 31 -54 48 -48 83 3 19 12 40 21 46 8 6 15 23 15 37 0 15 -27
214 -60 444 -33 230 -63 438 -67 463 -5 35 -15 53 -44 81 -47 43 -51 78 -13
116 l26 25 -83 577 c-76 531 -84 578 -106 600 -30 31 -30 75 2 106 31 32 66
32 104 -1 l31 -26 57 17 c32 9 108 31 168 50 61 19 196 59 300 90 534 157 565
168 565 186 0 25 40 67 71 74 19 5 34 0 56 -19 l31 -26 273 81 c151 45 330 98
399 119 l125 38 6 36 c8 48 35 76 74 76 30 0 68 -25 77 -52 4 -11 215 47 593
163 33 10 99 30 148 44 83 25 87 27 87 55 0 34 40 70 78 70 14 0 38 -12 53
-26 l27 -26 339 100 c186 56 359 107 385 114 39 10 48 17 53 39 13 59 91 84
135 44 20 -18 23 -18 138 15 64 18 142 41 172 51 30 9 120 36 200 60 157 46
170 52 170 80 0 52 97 81 133 41z"/>
<path d="M7725 12615 c-22 -8 -165 -51 -317 -96 -187 -55 -278 -86 -278 -95 0
-8 2 -14 4 -14 2 0 55 -16 118 -36 319 -101 523 -164 528 -164 4 0 12 11 18
25 6 13 23 27 37 31 l25 6 0 162 -1 161 -38 18 c-44 20 -43 20 -96 2z"/>
<path d="M7913 12611 c-22 -18 -23 -26 -23 -175 l0 -157 33 -33 c27 -26 37
-31 57 -25 14 4 149 47 300 94 151 48 285 90 297 94 13 3 23 10 23 15 1 8
-639 206 -660 206 -3 -1 -15 -9 -27 -19z"/>
<path d="M6915 12375 c-74 -24 -489 -148 -595 -177 -94 -27 -142 -49 -129 -62
4 -4 107 -40 488 -171 l154 -53 28 20 c37 28 88 26 112 -3 15 -19 22 -21 45
-13 l27 10 -3 209 c-2 136 -7 211 -14 214 -6 2 -18 12 -26 22 -19 22 -31 22
-87 4z"/>
<path d="M8525 12365 c-38 -13 -180 -59 -315 -101 -135 -43 -251 -82 -258 -87
-18 -14 -6 -22 68 -45 36 -12 130 -42 210 -67 268 -86 432 -136 435 -133 2 2
6 99 10 216 7 185 6 212 -8 212 -8 0 -20 7 -27 15 -16 19 -31 18 -115 -10z"/>
<path d="M7091 12359 l-24 -20 6 -195 c3 -108 8 -198 10 -201 10 -10 697 209
700 223 2 11 -21 19 -373 130 -146 46 -272 84 -280 84 -8 -1 -26 -10 -39 -21z"/>
<path d="M8727 12365 c-17 -12 -19 -36 -24 -229 -5 -188 -4 -216 9 -221 10 -4
26 4 41 19 33 32 82 35 113 5 l22 -21 294 100 c161 55 301 103 311 107 34 14
13 38 -48 56 -96 27 -215 63 -449 133 -120 36 -226 66 -235 66 -9 0 -24 -7
-34 -15z"/>
<path d="M7428 12017 l-348 -111 0 -41 0 -41 138 -48 c477 -166 565 -195 573
-190 5 3 9 12 9 19 0 8 14 24 30 37 l30 22 0 223 0 223 -26 10 c-14 6 -33 10
-42 9 -9 0 -173 -51 -364 -112z"/>
<path d="M7903 12124 c-10 -4 -13 -60 -13 -230 l0 -225 33 -33 34 -34 344 117
c189 64 350 120 357 124 6 5 12 18 12 31 0 21 -26 31 -352 134 -372 117 -396
124 -415 116z"/>
<path d="M9629 12083 l-36 -24 -7 -152 c-3 -84 -9 -177 -12 -208 l-6 -57 81
-26 82 -27 30 26 c37 31 68 32 103 4 l27 -22 97 36 c53 19 188 67 299 106 111
39 209 74 218 77 12 5 23 44 11 44 -2 0 -191 56 -420 125 -230 69 -421 125
-424 124 -4 -1 -23 -12 -43 -26z"/>
<path d="M9295 12029 c-396 -137 -406 -141 -403 -157 2 -11 98 -46 323 -118
176 -57 322 -100 325 -98 3 3 10 96 16 207 12 201 12 202 -10 219 -11 10 -28
17 -36 17 -8 0 -105 -32 -215 -70z"/>
<path d="M5180 11819 l-25 -19 12 -153 c6 -83 12 -184 12 -224 1 -39 5 -75 11
-78 10 -6 209 51 221 63 8 8 -45 369 -54 379 -7 7 -137 53 -146 52 -3 0 -17
-9 -31 -20z"/>
<path d="M8713 11829 c-21 -8 -22 -13 -25 -226 l-3 -218 30 -26 c24 -22 30
-34 29 -67 -1 -39 -1 -40 45 -53 51 -14 5 -28 565 169 190 67 189 66 184 160
l-3 54 -135 43 c-74 24 -222 71 -328 105 -182 58 -195 60 -218 46 -31 -21 -52
-20 -89 3 -21 12 -37 16 -52 10z"/>
<path d="M4900 11776 c-659 -195 -640 -189 -640 -212 0 -18 12 -27 63 -47 34
-13 176 -70 315 -127 l252 -102 18 21 c28 34 73 37 109 7 31 -26 32 -26 80
-10 26 9 52 19 56 24 5 4 1 103 -7 219 -9 116 -16 220 -16 231 0 11 -12 25
-27 33 -26 13 -42 10 -203 -37z"/>
<path d="M6798 11818 c-16 -5 -28 -17 -28 -26 -1 -9 -14 -114 -29 -232 -16
-118 -27 -218 -25 -222 3 -4 36 -17 74 -29 68 -22 70 -22 90 -4 30 27 88 25
111 -4 16 -19 23 -21 46 -13 23 7 28 15 27 38 -1 16 -3 119 -4 229 -1 110 -4
212 -7 227 -7 35 -58 56 -83 33 -21 -19 -80 -19 -106 0 -22 17 -29 17 -66 3z"/>
<path d="M8505 11759 c-77 -27 -228 -78 -335 -115 -198 -68 -220 -77 -220 -98
0 -12 27 -23 385 -149 l240 -85 19 25 c10 13 29 29 42 34 24 8 24 10 26 184 1
96 2 192 3 212 0 20 -4 37 -10 39 -5 1 -73 -20 -150 -47z"/>
<path d="M10664 11789 c-10 -12 -29 -25 -41 -30 -13 -5 -23 -16 -23 -26 0 -10
-7 -106 -15 -213 -7 -107 -13 -195 -12 -196 1 -1 38 -12 82 -26 l80 -25 34 30
c27 23 40 28 64 23 17 -4 38 -13 48 -22 15 -14 28 -11 143 35 291 117 496 204
496 211 0 5 -8 11 -17 14 -58 16 -799 239 -808 242 -6 3 -20 -5 -31 -17z"/>
<path d="M7086 11554 c4 -132 8 -241 10 -243 2 -2 63 18 136 43 73 26 224 80
335 119 112 40 203 75 203 78 0 3 -15 10 -32 16 -18 6 -163 57 -323 113 -159
56 -300 105 -313 107 l-23 5 7 -238z"/>
<path d="M10350 11734 c-85 -31 -209 -75 -275 -99 -66 -24 -132 -46 -147 -50
-38 -10 -50 -55 -15 -55 6 0 146 -43 310 -96 164 -52 304 -93 311 -91 6 3 12
18 13 33 1 16 7 107 14 202 10 161 10 174 -6 192 -10 11 -25 20 -34 20 -9 -1
-86 -26 -171 -56z"/>
<path d="M3680 11414 c-432 -129 -516 -154 -613 -182 -32 -9 -59 -21 -59 -27
0 -5 154 -76 342 -158 l343 -148 21 21 c27 25 82 27 108 3 17 -15 28 -13 181
36 89 28 171 56 182 60 20 8 20 9 3 217 -9 115 -17 220 -17 234 -1 21 -35 53
-71 66 -3 1 -192 -54 -420 -122z"/>
<path d="M4213 11508 c-19 -9 -22 -17 -18 -52 5 -37 35 -397 35 -410 0 -12 30
-5 141 30 422 133 520 167 516 177 -3 10 -587 252 -632 262 -11 2 -30 -1 -42
-7z"/>
<path d="M7715 11490 c-44 -16 -198 -69 -343 -119 -144 -49 -266 -92 -271 -95
-12 -8 -11 -63 2 -74 7 -6 77 -33 157 -60 80 -28 236 -83 347 -122 197 -70
202 -71 227 -55 l26 17 0 258 0 257 -25 11 c-31 14 -23 16 -120 -18z"/>
<path d="M9640 11482 l-75 -27 -6 -45 c-4 -25 -10 -112 -14 -193 l-7 -147 31
-29 c21 -20 31 -38 31 -58 0 -28 4 -30 128 -72 l127 -44 330 133 c182 72 333
135 336 138 4 4 10 43 14 87 l7 81 -139 43 c-76 23 -223 70 -326 103 -178 56
-189 59 -212 44 -30 -20 -74 -20 -99 -1 -26 20 -38 19 -126 -13z"/>
<path d="M11495 11500 c-11 -5 -148 -61 -305 -124 -230 -94 -286 -120 -288
-136 -2 -11 3 -22 10 -24 186 -61 622 -196 632 -196 12 0 25 103 43 368 5 79
4 92 -9 92 -9 0 -21 7 -28 15 -14 17 -26 18 -55 5z"/>
<path d="M11644 11492 c-19 -15 -23 -38 -38 -217 -9 -110 -16 -216 -16 -236
l0 -36 143 -47 c79 -25 148 -46 154 -46 6 0 16 6 22 14 20 24 59 28 97 10 l35
-17 232 103 c386 170 357 156 357 182 0 21 -9 27 -77 47 -43 13 -257 77 -475
142 -218 65 -400 119 -405 119 -4 0 -17 -8 -29 -18z"/>
<path d="M7890 11245 l0 -254 29 -16 c16 -8 33 -24 36 -36 9 -26 -16 -33 370
104 304 108 320 115 323 140 6 48 -51 85 -222 143 -83 29 -230 80 -328 113
-97 34 -183 61 -192 61 -14 0 -16 -29 -16 -255z"/>
<path d="M9340 11375 c-96 -35 -237 -85 -312 -112 -76 -26 -138 -51 -138 -54
0 -10 297 -109 330 -109 18 0 80 -14 137 -31 145 -43 148 -41 157 95 4 55 9
140 13 189 3 48 2 87 -3 86 -5 0 -88 -29 -184 -64z"/>
<path d="M5301 11344 c-57 -18 -106 -35 -108 -38 -2 -2 -1 -36 3 -75 l6 -70
165 -66 c164 -65 226 -80 146 -35 -46 26 -45 21 -68 180 -19 131 -21 140 -32
139 -4 0 -55 -16 -112 -35z"/>
<path d="M4725 11164 c-77 -25 -219 -71 -315 -102 l-174 -57 3 -55 c2 -30 8
-110 14 -178 l12 -123 149 -65 c145 -63 150 -65 185 -51 45 16 78 12 94 -14 6
-10 19 -19 27 -19 8 0 122 36 253 81 181 62 237 85 236 98 0 9 -8 117 -17 240
l-17 223 -68 31 c-64 28 -70 29 -109 16 -36 -11 -44 -11 -70 4 -16 9 -37 17
-46 16 -9 0 -80 -21 -157 -45z"/>
<path d="M6782 11170 c-101 -35 -102 -36 -102 -63 -1 -17 -23 -36 -93 -80
-208 -130 -382 -248 -382 -259 0 -6 121 -60 269 -119 248 -100 270 -107 289
-94 29 20 76 19 99 -2 21 -19 52 -14 161 27 l57 21 0 87 c0 48 -3 179 -7 290
-6 204 -6 204 -31 215 -19 9 -30 8 -54 -6 -36 -21 -77 -22 -104 -3 -17 12 -29
11 -102 -14z"/>
<path d="M10660 11161 c-60 -24 -96 -44 -101 -57 -4 -10 -12 -99 -19 -197
l-11 -179 26 -23 c14 -13 25 -32 26 -42 4 -62 -26 -45 252 -143 l118 -41 29
30 c32 35 67 40 105 15 28 -18 33 -17 165 44 36 16 113 51 171 77 l107 46 5
57 c4 31 9 98 13 148 l6 90 -123 38 c-68 21 -169 53 -224 71 -259 84 -316 99
-336 87 -25 -16 -70 -15 -95 2 -18 13 -30 11 -114 -23z"/>
<path d="M8750 11166 l-65 -23 -6 -114 c-4 -63 -7 -175 -8 -250 l-1 -136 88
-32 c215 -76 193 -72 220 -50 27 21 73 25 103 9 14 -8 30 -6 61 8 l43 18 -80
53 c-44 30 -83 56 -87 60 -7 6 -48 258 -48 296 0 19 11 25 80 45 45 13 77 26
73 30 -7 6 -264 97 -298 106 -5 1 -39 -8 -75 -20z"/>
<path d="M2980 11155 c-7 -8 -18 -15 -24 -15 -35 -1 -35 -13 -1 -250 18 -129
43 -302 54 -385 12 -82 33 -224 46 -315 14 -91 25 -175 25 -188 0 -15 6 -22
18 -22 11 0 27 -9 38 -21 12 -14 27 -19 44 -16 22 4 639 216 649 223 1 2 -4
60 -13 131 -8 70 -25 210 -37 311 -16 128 -26 182 -35 182 -16 0 -54 48 -54
69 0 11 -32 30 -98 58 -53 23 -206 90 -340 148 -134 58 -247 105 -252 105 -4
0 -13 -7 -20 -15z"/>
<path d="M7100 11018 c0 -218 11 -398 24 -398 6 0 157 52 336 115 179 64 331
118 339 121 13 4 8 51 -7 66 -4 3 -153 58 -332 121 -179 64 -333 119 -342 122
-17 7 -18 -4 -18 -147z"/>
<path d="M12534 11107 c-50 -23 -108 -50 -130 -59 -355 -155 -369 -162 -358
-179 7 -11 -14 -50 -36 -69 -14 -11 -21 -40 -29 -110 -5 -52 -22 -196 -36
-319 -14 -123 -23 -227 -18 -231 4 -4 42 -19 83 -33 41 -14 166 -58 278 -96
159 -56 204 -68 208 -57 3 8 19 20 34 26 34 14 31 1 65 270 13 107 38 299 55
425 16 127 35 268 40 315 6 47 13 94 15 105 3 14 -5 25 -26 38 -17 9 -36 17
-42 16 -7 0 -53 -19 -103 -42z"/>
<path d="M5207 11124 c-3 -4 -4 -18 -2 -33 2 -14 10 -113 16 -218 10 -157 15
-193 27 -193 12 0 465 151 525 175 9 4 17 10 17 14 0 15 -98 71 -175 100 -44
16 -152 59 -240 95 -88 36 -160 66 -161 66 0 0 -3 -3 -7 -6z"/>
<path d="M8385 11036 c-126 -45 -267 -96 -312 -112 -46 -16 -83 -32 -83 -35 0
-5 623 -229 638 -229 8 0 22 252 22 397 0 54 -3 63 -17 62 -10 0 -121 -38
-248 -83z"/>
<path d="M10470 11086 c-14 -7 -148 -62 -297 -122 -150 -59 -269 -111 -265
-115 6 -5 431 -156 490 -174 17 -5 29 -1 46 17 12 12 30 28 39 33 12 8 18 38
26 138 15 173 14 237 -1 237 -7 -1 -24 -7 -38 -14z"/>
<path d="M4035 10945 c-193 -60 -188 -58 -191 -86 -2 -24 10 -31 185 -107 104
-45 193 -82 199 -82 7 0 9 17 7 48 -3 26 -9 93 -15 150 -5 56 -10 107 -10 112
0 17 -30 11 -175 -35z"/>
<path d="M11576 10918 c-15 -140 -18 -210 -9 -207 6 2 78 33 162 69 198 85
198 88 6 147 -77 24 -143 43 -146 43 -4 0 -9 -24 -13 -52z"/>
<path d="M9555 10908 c-31 -18 -35 -28 -35 -105 l0 -71 129 51 c70 29 129 56
130 61 2 8 -180 77 -199 76 -3 0 -14 -6 -25 -12z"/>
<path d="M7923 10837 l-33 -22 1 -155 0 -155 31 -20 c18 -11 35 -31 38 -44 5
-20 32 -34 190 -97 102 -40 195 -73 207 -74 19 0 230 79 262 99 9 6 15 44 18
132 l5 124 -334 118 c-184 64 -338 117 -344 116 -5 0 -24 -10 -41 -22z"/>
<path d="M7685 10789 c-214 -77 -474 -169 -527 -187 l-48 -16 0 -93 c0 -109
-9 -100 153 -163 l108 -43 117 43 c64 23 158 57 209 75 65 24 102 44 128 69
l35 35 0 160 c0 136 -2 160 -16 165 -9 3 -16 6 -17 5 -1 0 -65 -23 -142 -50z"/>
<path d="M5745 10809 c-27 -10 -149 -53 -270 -95 -121 -41 -224 -79 -228 -84
-8 -7 4 -227 19 -367 l5 -51 92 -40 c182 -80 174 -78 202 -52 30 28 77 30 104
5 20 -17 27 -15 238 60 120 42 233 82 252 88 18 7 36 18 39 26 8 20 -18 434
-28 445 -4 4 -25 -4 -46 -18 -21 -14 -45 -26 -53 -26 -7 0 -47 23 -87 50 -49
33 -84 50 -104 50 -17 0 -43 6 -58 14 -24 12 -33 11 -77 -5z"/>
<path d="M9685 10769 c-82 -33 -155 -66 -162 -72 -18 -18 -31 -357 -13 -357 7
0 135 -43 283 -95 233 -83 274 -94 299 -86 35 12 70 1 91 -30 l16 -22 123 53
c68 29 127 56 132 61 5 5 15 82 22 171 l12 162 -29 27 c-16 15 -29 31 -29 37
0 5 -8 12 -17 15 -22 7 -463 160 -522 181 -24 9 -46 16 -50 16 -3 -1 -73 -28
-156 -61z"/>
<path d="M11717 10747 c-115 -53 -158 -77 -162 -92 -2 -11 -10 -82 -16 -159
l-11 -139 31 -28 c18 -16 31 -38 31 -51 0 -21 14 -28 144 -73 80 -28 148 -46
152 -42 7 7 53 376 69 552 l6 70 -39 18 c-21 9 -40 17 -43 16 -2 0 -75 -33
-162 -72z"/>
<path d="M3804 10796 c-20 -14 -20 -15 14 -313 19 -164 36 -300 38 -302 2 -2
45 11 96 29 51 18 143 50 203 71 99 34 110 40 109 61 -1 13 -5 75 -9 138 -4
63 -11 124 -15 136 -6 15 -63 44 -205 107 -109 48 -200 87 -204 87 -4 0 -16
-6 -27 -14z"/>
<path d="M6214 10588 c11 -224 17 -278 31 -278 13 0 274 90 415 143 114 43
108 49 -182 165 -139 56 -257 102 -262 102 -5 0 -6 -58 -2 -132z"/>
<path d="M9389 10646 c-42 -18 -90 -43 -107 -54 -16 -12 -43 -22 -58 -22 -16
0 -48 -7 -72 -17 -37 -14 -43 -20 -40 -41 3 -23 17 -31 163 -84 88 -32 167
-58 176 -58 13 0 17 18 22 107 9 139 9 203 0 203 -5 0 -42 -15 -84 -34z"/>
<path d="M11311 10566 c-162 -72 -186 -86 -192 -109 -5 -17 -3 -30 4 -34 7 -5
79 -31 161 -60 l148 -52 32 22 c17 12 32 22 33 22 1 0 6 56 13 125 6 69 13
135 16 148 3 16 0 22 -13 21 -10 0 -101 -37 -202 -83z"/>
<path d="M4270 10593 c0 -35 21 -257 24 -261 2 -1 62 19 134 44 l132 47 0 33
c0 37 -18 49 -160 109 -36 15 -80 34 -97 42 -33 13 -33 13 -33 -14z"/>
<path d="M5105 10586 c-49 -17 -154 -54 -232 -81 -79 -27 -139 -53 -135 -57 7
-7 176 -83 391 -174 57 -25 106 -43 108 -40 4 4 -16 326 -23 364 -2 12 -8 22
-12 21 -4 0 -47 -15 -97 -33z"/>
<path d="M8661 10500 c-1 -60 2 -110 7 -110 16 0 277 109 279 117 3 7 -259
104 -277 103 -3 0 -7 -49 -9 -110z"/>
<path d="M10538 10573 c-22 -6 -26 -26 -34 -191 l-7 -144 39 17 c136 56 414
181 414 185 0 6 -381 141 -390 139 -3 -1 -12 -3 -22 -6z"/>
<path d="M6977 10538 c-61 -22 -87 -36 -85 -46 3 -14 157 -82 186 -82 12 0 13
10 8 46 -3 26 -6 62 -6 80 0 19 -3 34 -7 33 -5 0 -48 -14 -96 -31z"/>
<path d="M8803 10412 l-143 -57 0 -57 c0 -32 4 -58 9 -58 22 0 41 -34 41 -73
l0 -42 103 -39 c56 -21 163 -62 237 -91 74 -29 176 -69 227 -89 l92 -36 34 23
c39 25 40 32 53 307 l7 135 -175 59 -174 60 -37 -17 c-41 -20 -77 -15 -103 14
-9 10 -20 19 -23 18 -3 0 -70 -26 -148 -57z"/>
<path d="M6480 10361 l-245 -87 1 -40 c10 -271 17 -344 32 -344 17 0 5 -4 437
153 306 112 310 114 313 143 4 42 21 70 49 83 21 10 24 17 21 57 l-3 46 -97
40 -97 40 -27 -21 c-15 -11 -35 -21 -45 -21 -23 0 -69 21 -69 32 0 15 -22 8
-270 -81z"/>
<path d="M4684 10405 c-25 -22 -27 -27 -21 -92 18 -234 79 -930 82 -939 2 -6
18 -14 37 -18 26 -4 75 10 233 68 109 40 200 77 201 82 1 5 5 21 8 36 4 16 18
34 33 42 31 16 31 -11 7 331 -17 256 -20 281 -37 288 -6 3 -126 55 -264 115
l-253 110 -26 -23z"/>
<path d="M7598 10342 c-98 -36 -175 -69 -172 -74 3 -5 13 -7 22 -3 16 6 360
-91 377 -106 5 -5 15 -9 22 -9 10 0 13 24 13 99 0 88 -2 100 -18 105 -11 4
-25 18 -32 31 -7 14 -18 25 -24 24 -6 0 -91 -30 -188 -67z"/>
<path d="M10731 10310 c-124 -55 -228 -103 -232 -107 -4 -5 -13 -75 -19 -158
-6 -82 -15 -206 -21 -275 -5 -69 -12 -168 -15 -220 l-6 -95 163 -63 c90 -35
197 -77 238 -93 40 -16 79 -29 87 -29 18 0 18 1 64 555 22 270 42 502 45 517
3 22 -2 30 -31 47 -19 12 -38 21 -42 21 -4 0 -108 -45 -231 -100z"/>
<path d="M4430 10352 l-135 -47 3 -45 c2 -25 12 -153 23 -285 11 -132 26 -308
33 -392 6 -84 14 -155 17 -158 3 -3 28 2 55 10 47 14 52 14 167 -21 66 -19
120 -34 121 -32 3 3 -7 135 -48 613 -35 409 -32 392 -59 399 -32 8 -30 9 -177
-42z"/>
<path d="M11078 10388 c-12 -10 -21 -80 -42 -338 -45 -544 -55 -663 -60 -713
-5 -43 -3 -49 18 -57 13 -5 33 -18 44 -30 l19 -21 180 82 181 82 6 76 c25 272
56 652 56 686 0 29 -5 44 -20 52 -11 7 -23 27 -28 44 -7 31 -15 34 -152 84
-192 69 -184 67 -202 53z"/>
<path d="M7931 10365 c-13 -14 -27 -25 -32 -25 -5 0 -9 -40 -9 -90 0 -63 4
-90 12 -90 7 0 25 -12 40 -27 l28 -27 170 68 c93 37 170 71 170 74 0 5 -230
97 -340 136 -8 3 -25 -5 -39 -19z"/>
<path d="M8513 10296 c-56 -22 -103 -44 -103 -47 0 -4 28 -17 63 -29 34 -13
67 -25 73 -27 6 -2 16 8 22 21 6 14 23 28 37 32 22 5 25 11 25 50 0 24 -3 44
-7 43 -5 -1 -54 -20 -110 -43z"/>
<path d="M9490 10303 c0 -10 -5 -100 -11 -200 l-12 -182 31 -30 c18 -16 32
-38 32 -50 0 -12 6 -21 13 -21 18 0 499 215 498 223 -1 4 -1 24 -1 45 l0 39
-147 53 c-241 86 -395 140 -399 140 -2 0 -4 -8 -4 -17z"/>
<path d="M4060 10224 c-102 -36 -189 -69 -193 -73 -5 -5 4 -121 20 -260 l28
-251 35 -22 c28 -19 36 -31 40 -63 l5 -40 138 -62 c119 -52 143 -60 169 -52
17 4 33 11 36 14 5 5 -50 706 -65 828 -3 26 -11 47 -17 46 -6 0 -94 -29 -196
-65z"/>
<path d="M6060 10213 c-69 -25 -176 -64 -239 -87 -103 -37 -115 -44 -122 -69
-7 -26 -4 -30 34 -46 23 -10 123 -53 221 -96 l179 -77 19 25 c10 14 32 29 49
32 30 7 30 8 25 53 -3 26 -8 107 -12 180 -4 89 -10 132 -18 131 -6 0 -67 -21
-136 -46z"/>
<path d="M8175 10159 c-190 -77 -215 -89 -215 -101 0 -5 10 -13 23 -17 12 -5
128 -53 257 -106 129 -54 253 -101 275 -105 22 -4 54 -11 72 -15 l31 -7 4 133
3 134 -45 44 c-31 31 -69 54 -127 78 -45 18 -88 33 -95 32 -7 0 -89 -32 -183
-70z"/>
<path d="M11544 10201 l-30 -16 -33 -383 c-18 -211 -31 -385 -29 -387 2 -2 87
34 190 81 l186 86 6 71 c4 40 16 144 26 232 10 88 20 178 22 199 l3 39 -135
48 c-147 52 -160 54 -206 30z"/>
<path d="M10330 10132 c-97 -42 -129 -62 -145 -86 -11 -17 -30 -32 -42 -34
-24 -4 -27 -25 -39 -294 -5 -113 -4 -138 7 -139 8 0 75 -24 149 -54 74 -29
138 -50 142 -47 7 7 62 702 56 707 -2 2 -59 -22 -128 -53z"/>
<path d="M5274 10113 c9 -109 25 -310 32 -416 6 -92 8 -99 34 -117 16 -11 33
-20 38 -20 19 0 237 83 243 92 6 9 5 49 -7 243 -5 87 -7 91 -34 107 -16 9 -32
28 -35 41 -6 21 -29 35 -135 81 -71 31 -132 56 -135 56 -3 0 -4 -30 -1 -67z"/>
<path d="M3690 10094 c-69 -24 -206 -72 -305 -105 -204 -70 -215 -75 -215 -93
0 -11 646 -307 668 -306 4 1 18 9 30 20 l24 20 -29 252 c-15 138 -32 253 -38
254 -5 1 -66 -17 -135 -42z"/>
<path d="M6909 10088 c-74 -27 -208 -75 -299 -108 -337 -122 -315 -111 -317
-148 -1 -18 -4 -39 -6 -47 -4 -8 14 -21 51 -38 31 -14 115 -50 185 -81 l128
-56 26 20 c28 22 64 26 94 9 17 -9 49 1 175 51 l154 62 0 178 0 179 -29 14
c-27 14 -37 12 -162 -35z"/>
<path d="M11915 10097 c-10 -27 -60 -497 -54 -497 3 0 79 34 169 75 91 42 181
83 200 92 180 80 251 118 248 132 -3 17 -13 20 -361 141 -137 48 -199 66 -202
57z"/>
<path d="M8657 10093 c-4 -3 -7 -72 -7 -153 l0 -147 53 -14 c40 -11 53 -19 55
-35 2 -17 25 -30 114 -64 107 -41 111 -42 138 -26 35 20 64 20 99 0 27 -16 31
-15 147 35 156 67 148 62 130 97 -8 16 -17 36 -19 44 -3 9 -60 36 -133 64 -71
27 -219 84 -328 128 -189 74 -234 87 -249 71z"/>
<path d="M7918 10005 l-28 -16 0 -232 0 -233 29 -22 c22 -16 31 -31 33 -59 l3
-38 155 -67 c85 -37 164 -67 175 -68 23 0 215 81 215 91 0 4 -40 33 -89 64
l-88 57 -22 136 c-11 75 -18 139 -14 142 5 4 41 16 82 28 72 21 89 29 80 35
-7 5 -473 189 -489 193 -8 2 -27 -3 -42 -11z"/>
<path d="M9995 9984 c-44 -20 -147 -65 -230 -101 -184 -80 -189 -83 -179 -93
11 -11 476 -151 482 -145 8 8 22 359 15 366 -5 4 -44 -8 -88 -27z"/>
<path d="M7819 10008 c-4 -20 -11 -62 -24 -162 -8 -66 -16 -120 -18 -121 -23
-18 -277 -180 -293 -187 -19 -9 -43 4 -170 87 -82 54 -150 102 -152 106 -2 5
-10 9 -18 9 -16 0 -18 -101 -6 -259 l7 -84 145 -64 145 -64 125 52 c222 91
230 96 230 120 0 12 16 37 35 55 l35 33 -2 238 c-3 217 -5 238 -20 241 -10 2
-18 2 -19 0z"/>
<path d="M5644 9989 c-6 -10 5 -329 11 -329 2 0 95 34 207 75 111 41 209 75
216 75 27 0 10 18 -35 38 -27 11 -117 50 -200 86 -153 66 -186 75 -199 55z"/>
<path d="M3132 9840 l-24 -20 16 -112 c53 -379 116 -817 122 -843 2 -12 21
-28 45 -39 l41 -19 226 83 c125 46 237 87 250 92 26 9 26 12 8 114 -8 44 -16
95 -19 115 l-5 37 66 19 67 19 -2 60 c-4 98 -11 122 -40 136 -26 13 -36 26
-47 61 -3 10 -34 31 -68 47 -161 74 -602 270 -607 270 -3 -1 -17 -9 -29 -20z"/>
<path d="M12425 9825 c-47 -22 -122 -57 -435 -200 -69 -31 -128 -60 -132 -64
-4 -3 -19 -105 -33 -226 -14 -121 -29 -253 -35 -293 -15 -109 -16 -106 43
-129 470 -185 498 -195 528 -182 16 6 32 15 34 19 3 5 36 248 75 542 65 494
68 534 53 546 -23 17 -41 15 -98 -13z"/>
<path d="M6071 9785 c-58 -26 -388 -145 -400 -145 -6 0 -11 -6 -12 -12 -2 -34
3 -162 17 -463 14 -284 18 -332 32 -342 37 -27 52 -48 52 -73 0 -24 9 -31 84
-63 47 -20 89 -37 94 -37 5 0 70 25 144 55 l134 56 0 34 c0 35 27 75 51 75 18
0 17 37 -8 197 -18 119 -19 137 -6 145 10 5 14 20 11 45 -2 21 -9 138 -15 261
l-12 222 -24 0 c-15 0 -37 12 -53 30 -32 34 -41 35 -89 15z"/>
<path d="M6267 9742 c-2 -4 2 -101 9 -217 7 -115 13 -229 13 -253 1 -52 -20
-54 237 22 l179 54 3 69 c3 65 1 71 -22 87 -15 9 -28 29 -31 49 -6 30 -13 35
-83 64 -42 17 -128 54 -189 82 -62 27 -114 47 -116 43z"/>
<path d="M6947 9663 l-138 -56 3 -34 c3 -33 5 -35 141 -93 76 -33 143 -60 148
-60 13 0 7 292 -6 296 -5 2 -72 -22 -148 -53z"/>
<path d="M8749 9683 c0 -5 -6 -51 -12 -103 l-12 -94 -43 -29 c-24 -16 -41 -31
-39 -33 3 -3 79 28 171 68 208 92 210 96 64 156 -103 42 -127 49 -129 35z"/>
<path d="M5510 9576 c-134 -48 -140 -51 -140 -77 0 -10 -10 -29 -22 -41 l-22
-22 18 -260 c11 -168 21 -265 29 -273 17 -16 216 -103 236 -103 9 0 26 8 37
18 l22 17 -19 360 c-10 198 -20 374 -21 391 l-3 32 -115 -42z"/>
<path d="M9153 9613 c-7 -2 -13 -16 -13 -30 0 -15 -12 -36 -30 -53 l-29 -27
-1 -288 c-1 -158 2 -291 7 -295 4 -5 56 -29 115 -54 l106 -46 36 21 c36 21 36
21 36 90 0 38 1 72 3 76 1 4 -25 25 -58 48 -71 48 -68 41 -109 325 -38 262
-34 245 -63 233z"/>
<path d="M10099 9548 c-3 -8 -35 -654 -32 -657 1 -2 29 4 61 13 54 17 61 17
115 1 59 -17 115 -13 122 8 4 11 31 359 37 472 l2 50 -139 57 c-125 51 -163
64 -166 56z"/>
<path d="M8813 9464 l-172 -76 -6 -52 c-4 -28 -5 -66 -3 -85 3 -34 3 -35 98
-62 l95 -27 -4 -38 c-8 -90 -9 -87 39 -110 69 -34 180 -78 184 -73 2 2 6 130
9 285 l5 281 -32 13 c-17 7 -33 15 -36 16 -3 2 -82 -31 -177 -72z"/>
<path d="M11620 9456 l-175 -82 -12 -124 c-18 -193 -21 -175 41 -199 30 -11
102 -39 161 -62 58 -23 108 -39 111 -36 6 6 14 61 43 327 12 102 24 202 27
223 4 27 2 37 -8 36 -7 0 -92 -38 -188 -83z"/>
<path d="M6762 9502 c-32 -16 -33 -18 -31 -74 1 -33 5 -61 9 -63 4 -3 45 6 91
20 102 30 116 30 199 5 74 -22 89 -25 74 -10 -7 7 -256 120 -299 135 -5 2 -25
-4 -43 -13z"/>
<path d="M3956 9484 c-16 -11 -17 -22 -11 -93 4 -45 11 -84 16 -86 11 -7 259
66 259 76 0 4 -6 9 -12 12 -7 3 -63 27 -124 55 -95 43 -113 48 -128 36z"/>
<path d="M5185 9460 c-11 -5 -76 -29 -145 -54 -211 -75 -205 -61 -47 -111 77
-24 141 -46 144 -49 3 -2 -1 -55 -7 -116 -7 -61 -10 -113 -7 -117 12 -12 200
-93 206 -89 4 3 1 73 -5 158 -7 84 -15 197 -19 251 -7 98 -7 99 -36 109 -16 5
-29 14 -29 19 0 11 -28 11 -55 -1z"/>
<path d="M10417 9179 c-10 -133 -16 -243 -14 -245 1 -2 68 26 148 62 79 36
190 86 245 111 l102 46 0 47 0 47 -57 21 c-31 11 -132 50 -225 86 -93 36 -172
66 -176 66 -3 0 -14 -109 -23 -241z"/>
<path d="M7638 9326 c-81 -33 -148 -63 -148 -67 0 -3 32 -15 70 -28 39 -12 70
-28 70 -34 0 -11 137 -78 157 -77 4 1 22 13 40 28 31 27 32 30 34 115 l2 88
-32 20 c-17 10 -35 18 -39 18 -4 -1 -73 -29 -154 -63z"/>
<path d="M7908 9366 c-15 -11 -18 -29 -18 -101 0 -84 1 -88 31 -116 36 -33 53
-37 44 -10 -5 16 5 22 67 40 178 53 208 63 208 69 0 4 -42 24 -93 46 -50 21
-116 49 -146 62 -61 27 -69 28 -93 10z"/>
<path d="M11243 9282 c-78 -37 -145 -70 -148 -73 -7 -8 284 -123 292 -115 6 6
21 150 22 219 1 24 -3 37 -11 36 -7 0 -77 -31 -155 -67z"/>
<path d="M10036 9180 l-7 -79 -82 -54 c-45 -29 -132 -86 -194 -126 l-112 -72
-102 66 c-56 37 -108 69 -115 72 -11 4 -14 -7 -14 -45 0 -28 -3 -57 -6 -65 -3
-10 6 -26 25 -43 20 -18 31 -37 31 -55 0 -25 8 -30 98 -68 94 -40 100 -41 128
-26 39 20 56 19 87 -5 14 -11 33 -20 42 -20 14 0 16 9 10 78 l-7 77 106 29
c59 16 108 32 110 35 5 9 18 381 13 381 -2 0 -8 -36 -11 -80z"/>
<path d="M11032 9150 c-13 -16 -34 -30 -50 -32 -27 -3 -27 -4 -34 -98 -14
-177 -68 -795 -73 -838 -4 -39 -3 -43 23 -53 15 -5 36 -14 47 -19 11 -5 62
-28 113 -50 l93 -40 74 37 c41 21 77 45 80 53 4 15 72 797 77 895 l3 49 -145
57 c-191 75 -181 73 -208 39z"/>
<path d="M7615 9118 c-3 -18 -16 -123 -30 -233 -37 -292 -55 -426 -61 -458 -6
-28 -28 -45 -279 -205 -72 -46 -39 -39 83 17 59 28 186 86 282 129 173 79 175
80 184 117 6 25 18 43 37 54 l29 16 0 226 0 226 -26 11 c-14 7 -30 25 -35 41
-8 23 -24 35 -84 60 -41 17 -79 31 -84 31 -6 0 -13 -15 -16 -32z"/>
<path d="M10865 9109 c-55 -26 -228 -107 -355 -164 -58 -27 -108 -53 -112 -59
-11 -17 8 -29 85 -52 69 -21 72 -23 69 -50 -1 -16 -13 -112 -26 -214 -24 -185
-24 -185 -57 -212 l-32 -27 44 -20 c219 -95 351 -151 359 -151 6 0 10 12 10
28 0 15 5 79 10 142 6 63 22 246 35 405 13 160 27 314 30 343 7 60 3 62 -60
31z"/>
<path d="M7951 9068 c-5 -14 -21 -34 -35 -46 l-26 -20 0 -219 0 -219 30 -26
c23 -20 30 -35 30 -62 0 -30 5 -38 28 -48 15 -7 141 -65 280 -129 l253 -118
33 20 33 19 6 152 c4 83 4 155 1 159 -3 5 -42 -16 -87 -46 -45 -30 -88 -55
-95 -55 -11 0 -141 82 -360 226 -2 1 -18 97 -35 212 -18 116 -35 214 -39 218
-4 4 -12 -5 -17 -18z"/>
<path d="M11416 9013 c-3 -15 -12 -113 -21 -218 -8 -104 -25 -295 -36 -422
-11 -128 -19 -237 -17 -242 1 -6 64 23 138 62 102 54 135 77 136 92 2 49 6 57
37 75 l33 20 28 252 c15 139 30 260 32 268 4 14 -48 37 -316 138 -5 2 -11 -10
-14 -25z"/>
<path d="M8786 8848 c-10 -84 -20 -162 -22 -173 -3 -11 -36 -40 -74 -65 -81
-53 -80 -49 -80 -253 l0 -138 30 -26 c17 -13 30 -31 30 -39 0 -8 4 -14 10 -14
16 0 332 148 346 162 10 10 13 82 15 308 l3 294 -110 48 c-60 26 -114 48 -119
48 -6 0 -18 -67 -29 -152z"/>
<path d="M5110 8976 c0 -16 -50 -383 -66 -484 -5 -29 -17 -41 -105 -98 l-99
-64 0 -65 c0 -49 3 -65 14 -65 14 0 40 10 304 120 l152 63 0 39 c0 29 7 44 28
63 21 18 28 33 26 53 -2 15 -8 99 -15 187 l-11 160 -107 48 c-100 45 -121 52
-121 43z"/>
<path d="M3600 8880 c-118 -43 -227 -83 -242 -88 -40 -16 -26 -42 40 -77 89
-47 492 -265 540 -291 47 -26 52 -28 52 -16 0 5 -17 18 -39 30 -37 21 -39 25
-50 94 -19 120 -52 340 -58 386 -3 23 -11 42 -17 42 -6 -1 -108 -36 -226 -80z"/>
<path d="M11744 8639 l-30 -261 25 -18 c28 -20 2 -31 341 149 58 31 135 72
172 91 61 31 68 38 68 65 0 29 -4 31 -93 64 -50 19 -170 65 -265 102 -96 38
-177 69 -181 69 -4 0 -20 -117 -37 -261z"/>
<path d="M9075 8882 c-8 -8 -6 -212 3 -212 4 0 54 13 111 30 57 16 108 27 113
24 6 -4 6 10 2 33 -4 21 -7 38 -8 39 -36 19 -217 90 -221 86z"/>
<path d="M5374 8758 c12 -198 18 -258 29 -258 6 0 23 -12 38 -26 l27 -25 95
40 c53 23 101 41 106 41 7 0 11 26 11 65 0 56 -3 66 -22 76 -34 18 -46 33 -55
68 -7 28 -19 36 -98 72 -50 22 -101 45 -114 50 l-24 10 7 -113z"/>
<path d="M6103 8687 c-68 -29 -123 -54 -123 -57 1 -8 300 -140 317 -140 13 0
15 9 9 53 -3 28 -6 78 -6 109 0 57 -1 58 -36 73 -20 8 -37 15 -38 15 0 -1 -56
-24 -123 -53z"/>
<path d="M3298 8697 l-26 -22 69 -480 c38 -264 71 -490 74 -503 3 -12 16 -27
28 -32 12 -6 29 -15 37 -21 12 -9 75 14 290 104 151 63 285 117 298 121 12 4
22 13 23 19 4 42 -48 461 -57 464 -5 2 -164 86 -352 188 -188 102 -346 185
-350 185 -4 -1 -19 -11 -34 -23z"/>
<path d="M9432 8707 c-11 -13 -5 -18 39 -32 l52 -17 -7 -69 -6 -69 35 15 c19
8 51 22 70 30 29 13 35 21 35 45 0 27 -6 32 -77 65 -97 45 -125 51 -141 32z"/>
<path d="M5723 8683 c-19 -13 -23 -25 -23 -68 0 -28 3 -54 6 -57 3 -3 33 5 67
19 34 14 74 30 90 36 15 6 27 14 27 18 0 5 -135 70 -143 68 -1 0 -12 -7 -24
-16z"/>
<path d="M5820 8569 c-52 -22 -99 -44 -104 -49 -5 -5 -4 -99 3 -232 6 -123 16
-340 22 -483 7 -143 14 -263 18 -267 4 -4 122 45 264 109 233 105 257 119 257
140 0 14 14 38 32 56 l31 32 -13 250 c-7 137 -16 267 -19 289 l-6 38 -179 79
c-99 43 -186 79 -195 79 -9 0 -59 -19 -111 -41z"/>
<path d="M12050 8462 c-260 -139 -275 -149 -281 -179 -8 -41 -23 -59 -53 -67
-21 -5 -24 -14 -34 -112 -7 -58 -10 -110 -7 -114 2 -4 19 -10 36 -14 l32 -6
-7 -78 c-4 -42 -9 -86 -12 -98 -6 -22 -26 -12 380 -186 62 -27 73 -29 107 -19
34 10 38 15 44 54 3 23 32 242 64 487 58 442 58 445 39 463 -11 9 -23 17 -27
16 -3 0 -130 -67 -281 -147z"/>
<path d="M9775 8554 c-15 -12 -33 -14 -71 -10 -45 5 -62 1 -126 -28 l-75 -34
-7 -51 c-6 -48 -10 -53 -65 -90 l-59 -40 -5 -63 c-3 -46 -1 -66 9 -74 7 -6 80
-30 161 -54 81 -23 152 -46 156 -50 7 -6 -14 -200 -39 -363 l-6 -38 99 -45
c54 -25 121 -57 150 -70 61 -28 73 -30 73 -8 0 18 28 615 33 697 l3 59 -60 41
c-34 22 -64 45 -68 51 -4 5 -10 42 -13 82 -4 39 -10 76 -14 82 -12 19 -55 23
-76 6z"/>
<path d="M5572 8467 c-71 -29 -104 -48 -109 -62 -3 -11 -18 -31 -32 -45 l-27
-25 20 -282 c12 -155 26 -286 31 -291 11 -9 42 -19 158 -53 l77 -22 -1 -36 c0
-20 -4 -61 -8 -91 -5 -30 -7 -58 -4 -62 8 -15 53 16 53 36 -2 91 -48 967 -51
970 -2 2 -50 -14 -107 -37z"/>
<path d="M6340 8413 c0 -10 7 -135 16 -278 20 -338 14 -331 230 -233 l139 64
3 97 3 97 -103 66 c-219 142 -268 176 -268 190 0 8 -4 14 -10 14 -5 0 -10 -8
-10 -17z"/>
<path d="M7720 8389 c-36 -17 -165 -75 -287 -131 l-221 -100 -5 -37 c-2 -20
-2 -39 2 -42 9 -9 571 -259 582 -259 6 0 23 10 39 22 l30 22 0 262 0 262 -25
16 c-32 21 -38 20 -115 -15z"/>
<path d="M7908 8399 c-16 -9 -18 -33 -17 -272 l0 -262 27 -27 c28 -30 50 -35
74 -15 14 11 14 23 3 107 -7 52 -12 96 -11 96 6 7 356 104 372 104 12 0 52 -9
89 -21 37 -11 69 -19 71 -17 2 2 0 17 -5 34 -7 27 -29 39 -282 156 -151 70
-281 127 -289 127 -8 0 -23 -4 -32 -10z"/>
<path d="M5190 8307 c-69 -29 -174 -73 -233 -97 l-109 -44 7 -92 c12 -156 8
-149 105 -200 47 -25 113 -61 147 -80 70 -39 81 -40 163 -17 49 13 67 14 97 5
21 -6 41 -8 44 -4 9 9 -29 554 -39 564 -24 23 -63 15 -182 -35z"/>
<path d="M4070 8308 c0 -25 49 -411 53 -414 2 -2 66 23 143 55 l139 58 -3 41
c-2 23 2 50 7 61 10 17 6 24 -31 49 -40 27 -293 162 -303 162 -3 0 -5 -6 -5
-12z"/>
<path d="M9105 8297 l-40 -23 -3 -87 c-2 -68 0 -87 11 -87 20 0 226 59 248 71
14 7 19 21 19 54 0 49 -1 50 -31 34 -16 -8 -31 -3 -78 25 -32 20 -65 36 -72
36 -8 0 -32 -11 -54 -23z"/>
<path d="M10373 8292 c-19 -15 -22 -32 -32 -177 -7 -88 -14 -190 -18 -227 -5
-62 -4 -68 13 -68 45 -1 48 -12 34 -109 -7 -50 -10 -94 -7 -97 3 -4 66 25 139
64 73 38 161 84 195 102 58 30 62 33 56 61 -7 34 17 76 51 89 22 8 24 17 31
100 4 50 6 93 4 94 -13 11 -426 186 -438 186 -3 0 -16 -8 -28 -18z"/>
<path d="M4658 8213 c-115 -77 -126 -87 -115 -104 6 -10 18 -21 25 -24 22 -8
247 91 250 110 7 31 -9 105 -21 104 -7 0 -69 -39 -139 -86z"/>
<path d="M10036 8258 c-4 -12 -36 -659 -36 -725 0 -18 5 -33 10 -33 6 0 24
-10 41 -22 l30 -22 44 23 c25 13 45 27 45 31 0 4 -26 25 -59 46 l-59 38 -16
105 c-9 57 -15 105 -14 106 2 2 44 14 94 28 77 23 96 25 127 15 20 -6 39 -9
41 -7 7 7 38 401 32 407 -3 3 -30 -11 -61 -31 -30 -21 -60 -37 -65 -37 -6 0
-37 17 -68 38 -80 54 -82 55 -86 40z"/>
<path d="M8858 8187 c-86 -40 -159 -75 -163 -79 -4 -4 19 -19 52 -34 166 -77
205 -94 212 -94 4 0 7 19 7 42 -1 39 1 43 32 51 30 9 32 13 34 56 3 108 2 124
-7 127 -5 1 -81 -30 -167 -69z"/>
<path d="M11540 8194 c-47 -26 -114 -62 -150 -83 l-65 -36 35 -3 c38 -2 61 -8
189 -47 46 -14 86 -23 89 -20 3 3 10 48 16 101 10 93 5 123 -20 131 -5 1 -47
-18 -94 -43z"/>
<path d="M4715 8110 c-49 -20 -90 -41 -92 -46 -1 -5 47 -35 108 -67 l110 -58
-7 98 c-7 99 -10 114 -22 112 -4 0 -47 -18 -97 -39z"/>
<path d="M10866 8072 c-3 -20 -6 -60 -6 -89 0 -43 4 -55 25 -71 l26 -20 44 25
c25 13 45 30 45 38 0 7 21 18 48 25 26 7 51 16 55 20 7 6 -116 65 -204 99 -25
9 -27 8 -33 -27z"/>
<path d="M6995 8055 c-22 -13 -46 -25 -54 -25 -8 0 -52 -17 -99 -37 l-84 -38
6 -269 c3 -148 6 -352 6 -453 0 -149 3 -183 14 -183 8 0 82 34 165 75 143 71
151 76 151 104 0 19 10 39 31 59 l30 29 -7 362 -7 362 -28 6 c-16 3 -34 12
-40 19 -17 20 -39 17 -84 -11z"/>
<path d="M8637 8074 c-14 -15 -6 -22 38 -33 55 -14 54 -1 20 -250 -14 -101
-25 -187 -25 -191 0 -4 -18 -19 -40 -34 l-40 -26 0 -108 c1 -78 5 -112 15
-126 8 -11 15 -35 15 -53 0 -33 1 -33 191 -129 106 -52 195 -92 200 -87 5 5 9
140 9 302 2 258 -1 311 -21 446 l-23 154 -143 65 c-153 70 -184 81 -196 70z"/>
<path d="M7175 8050 c-2 -4 0 -164 5 -356 5 -192 10 -357 10 -366 0 -9 15 -24
34 -33 33 -16 35 -15 125 27 50 23 91 45 91 49 0 3 -37 31 -82 60 -46 30 -86
57 -89 61 -11 17 -42 269 -33 277 5 5 59 23 121 40 l111 32 114 -35 113 -34
-3 -55 c-2 -31 -9 -95 -16 -144 -7 -48 -12 -89 -11 -91 2 -2 30 10 63 27 49
25 60 35 65 61 4 20 17 37 37 48 42 24 40 59 -5 95 -19 15 -35 37 -35 47 0 12
-13 26 -32 36 -94 49 -579 261 -583 254z"/>
<path d="M4527 8016 l-37 -33 10 -114 c5 -63 21 -251 35 -419 33 -402 30 -382
66 -409 35 -26 29 -28 187 46 52 24 98 43 102 43 5 0 11 4 14 9 6 9 -50 715
-59 759 -3 12 -9 22 -13 22 -5 0 -63 29 -129 65 -66 36 -124 65 -129 65 -5 -1
-26 -16 -47 -34z"/>
<path d="M4270 7925 c-141 -61 -145 -63 -143 -91 2 -27 57 -504 71 -623 l7
-54 65 -34 c36 -19 97 -52 136 -74 71 -39 71 -39 89 -19 10 11 25 20 33 20 17
0 17 3 -28 543 l-34 397 -25 -1 c-14 -1 -91 -29 -171 -64z"/>
<path d="M6573 7868 c-124 -57 -133 -62 -133 -89 0 -19 -9 -35 -30 -51 l-29
-23 14 -240 c8 -132 15 -252 15 -267 0 -17 5 -28 14 -28 30 0 59 -36 60 -75
l2 -39 89 -28 c105 -32 123 -34 152 -10 l21 17 -8 435 c-5 239 -9 441 -9 448
-1 20 -19 14 -158 -50z"/>
<path d="M10960 7886 c-32 -17 -47 -32 -52 -55 -6 -19 -19 -36 -38 -46 -17 -9
-30 -21 -30 -29 0 -7 -11 -139 -25 -292 -14 -153 -25 -291 -23 -307 3 -25 17
-34 165 -102 160 -74 193 -85 193 -64 0 5 15 16 33 24 l34 14 12 153 c20 260
30 222 -74 292 l-89 61 -27 177 c-15 98 -29 182 -31 188 -2 6 -23 0 -48 -14z"/>
<path d="M4876 7838 c22 -234 54 -615 54 -643 0 -19 4 -35 9 -35 19 0 121 50
121 60 0 5 -8 14 -19 19 -20 11 -25 31 -61 269 -29 192 -35 174 64 203 47 13
86 28 88 32 3 10 -226 137 -246 137 -10 0 -12 -12 -10 -42z"/>
<path d="M3995 7811 c-154 -65 -387 -162 -443 -184 -52 -20 -85 -59 -65 -78 4
-4 71 -40 148 -81 77 -41 229 -123 338 -182 109 -60 199 -107 201 -105 2 2 0
33 -5 69 -9 67 -69 582 -69 593 0 11 -10 8 -105 -32z"/>
<path d="M7973 7780 c-13 -5 -23 -16 -23 -25 0 -8 -13 -29 -30 -47 -16 -17
-30 -39 -30 -48 0 -9 14 -31 30 -48 17 -18 30 -39 30 -47 0 -10 87 -59 251
-140 138 -69 257 -125 264 -125 7 0 18 7 25 15 7 8 23 15 37 15 31 0 34 11 31
108 l-3 80 -99 -64 -98 -65 -97 63 c-53 34 -123 81 -156 103 l-60 40 -15 98
c-8 53 -19 97 -25 96 -5 0 -20 -4 -32 -9z"/>
<path d="M10587 7690 c-103 -54 -209 -109 -234 -122 -44 -22 -63 -49 -63 -89
0 -11 8 -22 18 -26 37 -13 52 -36 52 -80 l0 -43 63 -29 c267 -123 330 -151
333 -148 2 1 15 142 30 311 22 257 24 310 13 317 -8 5 -16 9 -19 9 -3 -1 -90
-45 -193 -100z"/>
<path d="M6025 7620 c-247 -112 -260 -119 -263 -146 -2 -25 3 -32 45 -55 26
-14 109 -58 183 -98 74 -41 173 -94 220 -119 47 -24 89 -49 95 -53 13 -13 37
-10 59 6 22 17 22 4 6 275 -5 91 -10 189 -12 218 -1 48 -4 54 -35 72 -19 11
-35 20 -36 19 -1 0 -119 -53 -262 -119z"/>
<path d="M11716 7729 c-3 -8 -10 -54 -16 -104 -9 -74 -15 -93 -32 -105 -57
-40 -58 -41 -73 -170 -13 -115 -13 -126 2 -138 21 -15 38 -10 111 33 32 18
148 83 260 145 170 94 202 116 202 135 0 20 -26 33 -212 115 -117 51 -219 94
-225 97 -7 3 -15 -1 -17 -8z"/>
<path d="M9490 7525 c-80 -52 -150 -95 -156 -95 -12 0 -17 -38 -30 -229 -6
-88 -5 -93 12 -88 11 4 73 22 139 41 91 27 161 57 291 126 l172 90 -5 43 c-4
32 -1 48 11 60 15 15 14 18 -21 36 -74 37 -243 111 -256 111 -7 0 -78 -43
-157 -95z"/>
<path d="M9050 7408 c0 -106 -3 -237 -7 -290 l-6 -97 34 -20 c19 -12 37 -21
40 -21 4 0 6 17 5 37 l-1 37 75 22 c74 21 75 21 81 60 4 21 10 102 13 179 l7
140 -115 73 c-63 39 -118 72 -121 72 -3 0 -5 -87 -5 -192z"/>
<path d="M3445 7520 c-5 -8 105 -811 120 -877 4 -16 13 -23 29 -23 13 0 35 -9
49 -20 14 -11 27 -20 30 -20 3 0 47 20 98 44 52 24 171 78 264 121 94 42 173
79 176 83 6 7 -25 310 -32 316 -6 4 -238 130 -299 163 -30 16 -134 73 -231
126 -96 53 -180 97 -187 97 -6 0 -14 -4 -17 -10z"/>
<path d="M7921 7494 c-24 -22 -24 -27 -24 -171 l0 -148 24 1 c13 1 50 8 81 15
56 13 60 12 195 -29 l138 -41 72 37 c60 30 72 40 67 56 -3 10 -7 26 -8 34 -2
14 -312 177 -471 247 l-50 22 -24 -23z"/>
<path d="M7525 7380 c-259 -128 -260 -128 -260 -160 0 -31 5 -34 143 -107 123
-65 145 -73 155 -60 7 8 44 24 82 35 39 11 103 30 143 42 l72 21 0 160 c0 159
0 160 -24 169 -13 5 -27 14 -31 19 -3 6 -9 11 -13 10 -4 0 -124 -58 -267 -129z"/>
<path d="M12045 7397 c-71 -40 -193 -108 -271 -150 -135 -74 -141 -78 -142
-110 -1 -29 -30 -67 -60 -78 -13 -5 -45 -260 -34 -270 4 -4 118 -58 255 -120
l247 -112 23 21 c13 12 31 22 40 22 9 0 17 4 17 8 0 9 94 732 104 799 4 25 0
35 -19 47 -14 9 -26 16 -27 16 -2 0 -61 -33 -133 -73z"/>
<path d="M5667 7453 c-4 -3 -7 -17 -7 -29 0 -13 -5 -57 -11 -99 l-11 -75 -75
-47 -75 -48 5 -55 c3 -30 14 -173 23 -317 l18 -262 39 -26 40 -25 83 39 83 40
-6 88 c-3 48 -12 245 -22 437 l-16 350 -31 18 c-17 10 -34 15 -37 11z"/>
<path d="M11470 7388 c-76 -50 -96 -59 -109 -50 -45 32 -74 44 -81 32 -7 -11
-30 -255 -30 -318 0 -19 6 -35 15 -38 23 -9 205 96 205 118 0 32 29 77 54 84
26 6 30 19 41 129 3 33 8 70 11 83 2 12 0 22 -4 22 -5 0 -51 -28 -102 -62z"/>
<path d="M10062 7395 c-7 -14 -25 -33 -41 -42 -25 -15 -29 -24 -35 -76 -3 -33
-6 -81 -6 -107 l0 -48 68 -20 c37 -12 88 -27 115 -34 30 -8 47 -18 47 -27 0
-8 -16 -136 -36 -284 -19 -148 -34 -270 -32 -272 2 -2 15 7 29 18 l26 22 27
381 27 382 -25 36 c-13 20 -26 40 -28 44 -4 10 -95 52 -112 52 -7 0 -18 -11
-24 -25z"/>
<path d="M5765 7401 c-3 -6 -3 -43 0 -83 3 -40 12 -224 21 -408 9 -184 18
-337 19 -338 2 -2 13 -1 24 3 27 8 27 32 1 195 -11 68 -16 127 -12 131 7 6
130 43 400 121 107 31 112 33 112 59 0 30 24 15 -340 209 -85 45 -169 91 -187
102 -19 11 -34 15 -38 9z"/>
<path d="M9819 7287 c-64 -34 -118 -66 -120 -71 -4 -8 201 -75 232 -76 13 0
17 15 22 68 10 103 9 142 -5 141 -7 0 -65 -28 -129 -62z"/>
<path d="M10315 7303 c-37 -9 -32 30 -79 -608 -8 -111 -9 -171 -2 -174 5 -2
20 -15 33 -27 13 -13 29 -24 34 -24 6 0 63 29 126 65 63 36 117 65 119 65 2 0
26 14 54 31 38 24 50 37 50 56 0 34 16 60 48 77 27 14 27 16 42 181 10 112 12
169 5 174 -10 9 -382 181 -400 186 -5 1 -19 0 -30 -2z"/>
<path d="M5020 7165 c-53 -24 -76 -39 -78 -54 -2 -11 4 -94 12 -184 9 -91 16
-169 16 -174 0 -6 96 -62 213 -125 303 -165 273 -152 303 -131 23 16 24 23 20
73 -3 30 -13 169 -23 308 -10 147 -21 252 -27 252 -5 0 -17 -6 -25 -13 -9 -8
-36 -25 -61 -39 l-45 -25 -110 73 c-60 40 -112 73 -115 73 -3 0 -39 -15 -80
-34z"/>
<path d="M8550 7183 c-36 -4 -160 -59 -160 -71 0 -4 33 -17 73 -28 59 -17 72
-24 70 -40 -1 -10 -14 -108 -28 -218 -14 -109 -24 -201 -21 -203 4 -4 147 68
413 209 62 33 63 33 63 76 0 33 6 48 24 66 l25 22 -197 97 c-108 54 -204 97
-212 96 -8 -1 -31 -4 -50 -6z"/>
<path d="M6948 7096 c-220 -107 -222 -119 -25 -171 l69 -18 -4 -61 -3 -60 70
-39 c39 -21 117 -64 175 -94 l106 -56 132 68 c88 45 132 73 132 84 0 25 -37
251 -41 255 -2 1 -75 40 -162 85 -127 65 -162 79 -177 71 -26 -14 -62 -12 -85
4 -18 12 -38 5 -187 -68z"/>
<path d="M4210 7112 c0 -19 31 -266 33 -269 2 -2 56 21 120 50 95 42 117 56
114 71 -1 14 -40 40 -127 88 -126 68 -140 74 -140 60z"/>
<path d="M4763 7048 c-128 -60 -133 -63 -133 -92 0 -30 8 -35 153 -113 83 -44
153 -80 155 -78 9 9 -23 345 -32 345 -6 0 -71 -28 -143 -62z"/>
<path d="M10772 6968 c-17 -189 -17 -196 12 -209 22 -10 43 -2 185 77 89 48
161 93 161 99 0 6 -12 16 -27 22 -16 6 -92 41 -171 77 -78 36 -144 66 -145 66
-2 0 -9 -60 -15 -132z"/>
<path d="M11380 7030 l-85 -48 0 -42 0 -42 100 -44 c54 -24 102 -41 106 -36 3
4 12 60 18 126 17 160 5 168 -139 86z"/>
<path d="M4360 6866 c-103 -48 -115 -55 -112 -77 15 -148 62 -542 64 -543 2
-1 15 -7 31 -14 28 -12 47 -46 47 -86 0 -18 17 -32 83 -69 46 -26 88 -47 93
-47 5 0 21 13 36 28 l27 28 -10 94 c-5 52 -21 234 -35 405 -14 170 -26 310
-27 310 -1 1 -15 6 -30 13 -39 17 -39 17 -167 -42z"/>
<path d="M4587 6903 c-2 -5 11 -181 29 -393 18 -212 33 -395 34 -408 0 -12 8
-25 18 -29 9 -3 26 -14 37 -24 19 -17 24 -15 144 42 69 33 130 64 136 69 7 6
6 62 -6 192 -9 101 -20 226 -24 279 l-7 96 -61 33 c-34 18 -110 59 -168 91
-105 59 -124 66 -132 52z"/>
<path d="M10990 6815 c-180 -100 -180 -100 -180 -132 0 -23 -33 -65 -57 -74
-11 -4 -43 -292 -43 -383 l0 -36 175 -87 175 -88 16 23 c9 13 26 27 38 31 20
8 22 22 49 342 16 184 31 362 34 397 5 47 3 62 -7 62 -8 0 -21 7 -30 15 -14
13 -32 5 -170 -70z"/>
<path d="M11246 6867 c-12 -9 -18 -42 -26 -132 -26 -322 -50 -603 -54 -631 -4
-26 1 -35 25 -53 l29 -21 67 38 c52 29 69 44 71 62 6 58 14 72 45 85 l32 13
28 249 c16 136 30 258 33 271 4 21 -6 28 -98 71 -132 61 -133 62 -152 48z"/>
<path d="M8730 6713 c-129 -68 -241 -130 -249 -138 -12 -12 -9 -16 23 -32 30
-14 41 -15 56 -5 25 15 75 16 99 1 19 -13 24 -10 254 118 l97 54 0 65 c0 60
-1 64 -22 63 -13 -1 -129 -57 -258 -126z"/>
<path d="M4060 6729 c-85 -38 -208 -93 -272 -122 -78 -34 -117 -57 -115 -66 1
-8 56 -44 122 -81 66 -37 138 -77 160 -90 277 -158 284 -161 305 -148 11 7 20
23 20 38 0 45 -57 530 -63 536 -1 2 -72 -28 -157 -67z"/>
<path d="M11525 6747 c-2 -7 -16 -124 -30 -262 -15 -137 -29 -253 -31 -257 -3
-4 5 -13 17 -22 24 -17 13 -22 264 122 170 98 245 140 273 154 25 13 26 36 2
49 -13 8 -72 36 -280 131 -200 93 -211 97 -215 85z"/>
<path d="M6965 6680 c-8 -82 -5 -87 64 -120 48 -22 51 -22 85 -6 34 16 38 16
71 0 29 -14 40 -14 65 -4 61 25 55 32 -104 118 -84 45 -157 82 -163 82 -6 0
-14 -31 -18 -70z"/>
<path d="M9089 6722 l-46 -26 -7 -150 c-3 -82 -6 -179 -6 -216 l0 -66 188 -98
c173 -90 189 -96 218 -87 43 15 79 14 94 -4 17 -21 30 -19 84 11 l46 26 -22
17 c-13 9 -48 33 -78 53 -30 19 -118 76 -194 127 -77 50 -144 92 -149 94 -5 1
-20 80 -35 175 -15 98 -31 172 -37 171 -5 0 -31 -12 -56 -27z"/>
<path d="M4975 6674 c3 -16 14 -132 25 -258 11 -126 22 -231 24 -233 2 -2 98
43 212 100 198 98 209 105 212 134 3 34 0 37 -93 88 -38 21 -131 71 -204 112
-74 40 -145 76 -158 79 -21 6 -22 3 -18 -22z"/>
<path d="M7478 6641 c-60 -31 -108 -58 -108 -61 1 -8 410 -225 431 -228 43 -7
14 26 -70 81 l-89 58 -10 62 c-6 34 -14 81 -17 105 -4 23 -12 41 -18 41 -7 -1
-60 -27 -119 -58z"/>
<path d="M8945 6644 c-22 -13 -89 -50 -148 -82 -106 -56 -108 -58 -105 -90 3
-32 8 -36 150 -109 82 -42 150 -74 152 -72 3 2 8 89 12 192 8 209 10 204 -61
161z"/>
<path d="M10485 6536 c-181 -100 -195 -110 -195 -130 0 -9 296 -161 376 -193
7 -2 13 22 17 69 4 40 11 131 18 202 15 183 20 182 -216 52z"/>
<path d="M6946 6533 c-14 -100 -17 -143 -9 -143 4 0 35 15 68 33 46 24 61 38
63 57 2 21 -6 30 -52 58 -30 17 -56 32 -59 32 -3 0 -8 -17 -11 -37z"/>
<path d="M5831 6545 c-24 -12 -25 -15 -22 -126 1 -62 5 -117 7 -121 7 -11 85
-50 90 -45 2 2 -5 57 -16 121 -11 65 -20 131 -20 146 0 36 -9 42 -39 25z"/>
<path d="M7279 6535 c-36 -19 -48 -31 -51 -53 -5 -32 -36 -12 327 -215 250
-139 249 -139 280 -125 21 9 25 18 25 53 0 30 -6 47 -21 61 -12 10 -25 27 -28
38 -5 11 -90 62 -211 127 -111 60 -213 115 -226 124 -30 20 -40 19 -95 -10z"/>
<path d="M5693 6478 c-52 -26 -83 -47 -83 -57 0 -15 165 -110 173 -100 3 2 1
48 -2 101 l-6 97 -82 -41z"/>
<path d="M8463 6504 c-5 -14 -103 -81 -336 -231 -37 -23 -73 -43 -80 -43 -7 0
-28 10 -47 23 l-34 24 -32 -21 c-28 -18 -33 -27 -34 -62 0 -34 4 -43 25 -52
26 -12 -7 -28 477 234 113 61 128 72 128 95 0 18 -8 29 -25 37 -33 15 -34 15
-42 -4z"/>
<path d="M3645 6490 c-4 -6 -18 -16 -32 -21 -21 -8 -24 -14 -20 -38 3 -16 26
-174 51 -352 25 -178 49 -340 53 -359 8 -33 12 -35 86 -58 50 -15 77 -28 77
-38 0 -7 2 -14 4 -14 4 0 458 221 464 225 2 2 -3 58 -10 125 -11 110 -15 123
-34 130 -28 11 -54 48 -54 76 0 18 -46 48 -270 174 -149 84 -279 154 -289 157
-10 3 -22 0 -26 -7z"/>
<path d="M11944 6406 c-60 -34 -180 -102 -266 -150 -121 -67 -158 -92 -158
-107 0 -33 -29 -78 -54 -85 -21 -5 -24 -13 -30 -85 -3 -43 -9 -92 -12 -109
l-7 -30 257 -126 c335 -164 310 -170 340 81 28 226 76 600 81 621 3 15 -2 27
-19 37 -22 15 -28 13 -132 -47z"/>
<path d="M7000 6391 l-75 -39 -10 -68 -10 -69 -58 -38 -58 -38 2 -141 1 -141
34 -32 c26 -25 34 -41 34 -67 0 -31 4 -36 55 -61 44 -21 63 -25 98 -21 24 4
53 2 63 -4 16 -8 32 -4 79 22 94 50 323 176 395 215 36 20 107 59 158 86 86
47 92 52 90 79 -2 20 -12 34 -33 45 -16 9 -57 31 -90 50 -33 19 -152 85 -264
148 -172 95 -206 111 -223 102 -19 -10 -45 -9 -93 5 -12 3 -48 -9 -95 -33z"/>
<path d="M8495 6396 c-72 -41 -399 -220 -467 -256 -62 -32 -68 -38 -68 -67 0
-28 6 -35 63 -66 106 -59 157 -87 332 -185 328 -183 314 -176 333 -159 36 31
91 29 113 -6 4 -5 32 4 68 23 58 31 61 35 61 71 0 30 6 43 33 65 l32 27 3 202
3 203 -166 87 c-137 71 -169 84 -181 74 -18 -15 -73 -14 -87 0 -15 15 -26 13
-72 -13z"/>
<path d="M5246 6260 c-120 -60 -220 -111 -222 -113 -2 -2 1 -53 7 -113 19
-196 18 -194 44 -206 27 -12 47 -53 43 -87 -3 -21 10 -32 98 -83 100 -57 101
-58 133 -42 25 13 37 13 66 4 34 -11 42 -8 203 75 92 48 173 92 181 98 11 10
12 41 7 167 -3 85 -9 190 -12 232 l-7 78 -95 51 c-90 49 -97 51 -131 39 -26
-8 -44 -9 -64 -1 -16 6 -29 11 -30 10 -1 0 -100 -49 -221 -109z"/>
<path d="M10210 6361 c-25 -4 -81 -27 -125 -52 -73 -41 -80 -47 -82 -78 -3
-39 -18 -59 -49 -71 -19 -8 -21 -18 -27 -116 -4 -59 -7 -138 -7 -175 l0 -67
87 -47 c67 -35 287 -115 319 -115 2 0 4 -7 4 -16 0 -12 6 -15 23 -11 12 3 36
0 52 -7 28 -12 35 -11 97 23 61 32 68 39 68 67 0 30 34 74 57 74 6 0 13 21 16
48 10 75 30 353 26 357 -12 11 -393 195 -402 194 -7 -1 -32 -5 -57 -8z"/>
<path d="M5824 6094 c10 -239 15 -277 35 -269 9 3 89 45 179 91 116 61 162 90
160 101 -3 18 -149 112 -287 185 l-93 50 6 -158z"/>
<path d="M9029 6093 c-1 -76 -3 -164 -5 -195 -3 -49 0 -61 18 -78 12 -11 28
-20 36 -20 8 0 85 39 172 87 158 87 159 87 153 118 -3 16 -8 33 -12 37 -6 6
-352 188 -358 188 -2 0 -4 -62 -4 -137z"/>
<path d="M9705 6102 c-107 -59 -141 -83 -143 -100 -2 -12 1 -22 5 -22 5 0 77
-35 161 -79 84 -43 154 -76 156 -72 2 3 7 79 11 168 7 156 6 162 -13 172 -12
6 -24 11 -29 11 -4 0 -71 -35 -148 -78z"/>
<path d="M10691 6018 c-6 -73 -14 -158 -18 -190 -5 -50 -3 -57 15 -67 18 -10
35 -4 109 38 219 122 258 147 258 167 0 15 -36 37 -165 101 -91 46 -170 83
-176 83 -7 0 -15 -50 -23 -132z"/>
<path d="M4854 6068 c-100 -51 -123 -66 -132 -91 -6 -17 -11 -31 -9 -32 1 -1
59 -35 129 -75 117 -66 129 -71 143 -56 9 9 21 16 27 16 8 0 9 30 4 98 -10
152 -18 202 -30 201 -6 0 -65 -28 -132 -61z"/>
<path d="M6616 6025 c-71 -46 -130 -86 -132 -88 -2 -2 48 -32 111 -66 l115
-62 31 22 32 22 -7 96 c-3 53 -6 111 -6 129 0 17 -3 32 -7 32 -5 0 -66 -38
-137 -85z"/>
<path d="M4342 6091 c-11 -6 -11 -28 -2 -117 7 -60 14 -112 17 -116 5 -10 223
99 223 111 0 17 -30 40 -114 86 -85 46 -101 51 -124 36z"/>
<path d="M11295 6039 c-38 -22 -70 -41 -71 -42 -1 -1 -4 -14 -8 -30 -6 -26 -3
-29 80 -68 48 -22 89 -38 91 -35 3 2 10 48 17 101 12 89 11 97 -5 106 -26 13
-28 13 -104 -32z"/>
<path d="M7460 5830 c-292 -160 -345 -193 -348 -213 -3 -22 18 -36 230 -152
128 -70 285 -156 349 -191 64 -35 123 -64 131 -64 37 0 38 15 38 405 l0 382
-25 11 c-14 7 -27 12 -28 12 -1 0 -157 -86 -347 -190z"/>
<path d="M7923 6007 l-23 -10 0 -382 0 -381 32 -24 32 -24 46 26 c75 42 510
278 618 335 27 15 32 23 30 47 -3 27 -23 41 -283 186 -450 251 -427 239 -452
227z"/>
<path d="M6039 5888 c-96 -50 -180 -96 -187 -102 -10 -10 -11 -53 -1 -222 6
-115 15 -210 20 -212 26 -10 57 -45 62 -71 5 -23 20 -38 69 -66 57 -34 66 -36
97 -26 27 8 41 7 67 -5 36 -17 13 -28 444 209 l155 85 3 96 3 97 -36 33 c-19
18 -35 42 -35 52 0 27 -252 160 -276 146 -13 -7 -29 -2 -63 19 -24 16 -59 29
-76 29 -17 0 -40 6 -51 14 -18 13 -35 7 -195 -76z"/>
<path d="M9518 5942 c-23 -14 -32 -15 -59 -5 -31 12 -39 9 -200 -80 -158 -87
-168 -94 -179 -130 -7 -24 -20 -42 -36 -49 -23 -11 -24 -14 -24 -119 l0 -107
191 -106 c106 -59 193 -105 195 -103 2 1 -4 48 -12 102 -25 160 -43 290 -41
291 1 1 74 23 162 49 88 26 197 58 243 72 46 14 92 23 102 20 11 -3 20 -1 20
3 0 7 -323 182 -332 179 -2 0 -15 -8 -30 -17z"/>
<path d="M4480 5883 c-63 -30 -117 -57 -119 -59 -2 -2 1 -43 7 -91 7 -49 23
-189 37 -313 14 -124 28 -234 30 -245 2 -11 20 -28 39 -39 l34 -18 104 52 c56
29 130 67 163 85 33 18 110 58 170 90 61 31 111 59 113 60 2 2 -2 64 -9 139
-9 104 -15 136 -26 136 -21 0 -63 50 -63 74 0 30 -250 171 -298 168 -17 -2
-40 2 -50 7 -14 7 -45 -4 -132 -46z"/>
<path d="M10910 5820 c-172 -97 -175 -99 -183 -138 -6 -31 -15 -43 -42 -58
-32 -17 -35 -22 -35 -65 0 -25 -3 -66 -6 -90 l-6 -44 194 -102 c406 -213 392
-207 435 -190 46 18 42 1 83 367 17 151 32 285 34 298 3 20 -8 29 -88 69 -75
38 -102 47 -151 49 -59 2 -64 0 -235 -96z"/>
<path d="M4095 5693 c-126 -63 -233 -117 -236 -121 -4 -4 -10 -30 -14 -57 l-6
-51 183 -119 c100 -66 218 -143 261 -172 77 -50 80 -51 104 -36 22 14 24 22
19 57 -3 23 -19 167 -37 321 -17 154 -34 283 -38 287 -3 3 -109 -46 -236 -109z"/>
<path d="M11406 5728 c-3 -40 -19 -188 -36 -328 -20 -182 -26 -258 -18 -267
18 -22 -20 -43 373 216 l200 131 -3 40 -4 39 -243 121 c-133 66 -247 120 -252
120 -6 0 -13 -33 -17 -72z"/>
<path d="M5765 5746 c-11 -6 -84 -45 -163 -86 l-143 -75 3 -34 c3 -37 -3 -32
240 -168 140 -77 135 -85 124 171 -10 221 -10 222 -61 192z"/>
<path d="M6813 5693 c-18 -7 -18 -183 0 -183 6 0 41 17 77 38 87 50 88 72 5
118 -63 35 -63 35 -82 27z"/>
<path d="M5067 5683 c-6 -10 16 -250 23 -257 3 -3 53 21 110 52 139 76 139 80
8 155 -96 54 -131 66 -141 50z"/>
<path d="M8878 5647 c-47 -26 -58 -37 -58 -57 0 -17 9 -31 28 -42 53 -31 125
-68 133 -68 5 0 9 42 9 94 0 76 -3 95 -16 100 -26 10 -36 7 -96 -27z"/>
<path d="M10513 5594 c-86 -48 -84 -64 12 -111 41 -20 77 -34 81 -30 4 4 10
41 13 83 6 65 4 77 -11 85 -24 13 -27 12 -95 -27z"/>
<path d="M6871 5508 l-74 -41 6 -195 c4 -107 7 -251 7 -319 0 -95 3 -123 13
-123 26 0 57 -45 57 -82 0 -28 5 -37 25 -46 43 -20 47 -15 43 40 l-3 51 75 23
c41 12 185 55 320 94 204 60 264 83 358 132 l113 60 -7 36 c-4 21 -7 37 -8 38
0 0 -156 85 -345 188 -325 178 -345 187 -372 176 -16 -7 -41 -10 -56 -7 -16 3
-39 8 -53 11 -17 4 -47 -7 -99 -36z"/>
<path d="M8384 5374 c-164 -91 -328 -182 -363 -201 -75 -42 -77 -38 64 -114
83 -44 160 -71 450 -159 l350 -106 -2 -43 c-2 -34 1 -42 15 -39 12 2 16 15 17
47 1 41 20 69 54 83 4 2 11 136 15 299 l7 296 -93 52 c-77 43 -98 50 -123 44
-34 -8 -31 -8 -66 0 -20 5 -85 -27 -325 -159z"/>
<path d="M5201 5451 c-51 -27 -98 -54 -103 -59 -6 -6 -1 -116 16 -313 34 -404
34 -398 60 -410 11 -5 28 -14 37 -21 13 -9 30 -4 90 29 41 22 175 95 299 163
124 67 231 127 239 133 10 9 12 34 9 110 -5 97 -6 100 -37 124 -25 19 -31 32
-31 61 0 36 -2 38 -98 92 -53 29 -126 71 -161 93 -55 33 -68 37 -88 28 -33
-15 -66 -14 -89 4 -29 22 -41 19 -143 -34z"/>
<path d="M10409 5468 c-29 -15 -42 -16 -64 -8 -15 6 -29 9 -31 8 -1 -2 -15
-93 -29 -203 -24 -176 -30 -202 -49 -215 -11 -8 -67 -45 -124 -82 l-103 -66
103 -58 c57 -31 162 -90 235 -131 l131 -73 34 18 c26 15 34 26 36 53 13 158
53 613 58 650 l6 46 -81 42 c-44 22 -81 40 -83 40 -2 -1 -19 -10 -39 -21z"/>
<path d="M6605 5361 c-88 -48 -185 -101 -215 -118 -30 -16 -83 -45 -117 -64
-52 -28 -63 -38 -63 -59 1 -22 29 -41 261 -172 253 -143 262 -147 285 -131
l24 15 0 304 c0 166 -3 305 -8 307 -4 3 -79 -34 -167 -82z"/>
<path d="M9017 5358 c-4 -29 -7 -156 -7 -283 l1 -230 25 -19 c21 -15 31 -16
50 -7 23 10 374 210 383 218 3 2 -5 10 -16 18 -16 11 -22 30 -28 79 l-6 65
-187 103 c-103 57 -192 104 -198 106 -7 2 -14 -18 -17 -50z"/>
<path d="M10636 5378 c-2 -7 -11 -107 -20 -223 -9 -115 -21 -253 -26 -305 -18
-179 -17 -181 12 -203 l26 -19 86 57 c71 47 85 61 81 79 -11 49 -26 148 -23
150 9 7 149 51 278 87 150 42 180 54 180 69 0 9 -157 96 -423 234 -112 58
-169 82 -171 74z"/>
<path d="M4780 5231 c-232 -122 -265 -143 -272 -168 -7 -22 -4 -31 13 -43 49
-35 516 -342 540 -355 22 -12 29 -12 44 -1 17 12 17 22 1 212 -9 109 -22 265
-28 347 -7 89 -16 147 -23 147 -5 0 -129 -63 -275 -139z"/>
<path d="M5896 5202 l-28 -17 6 -90 c4 -49 9 -91 11 -93 2 -2 40 16 84 40 79
42 81 44 79 76 -3 30 -10 38 -63 67 -59 33 -61 34 -89 17z"/>
<path d="M5970 5013 c-47 -25 -86 -47 -88 -48 -3 -3 24 -570 34 -721 6 -81 6
-82 43 -106 l37 -24 397 215 397 216 0 61 c0 55 -2 62 -29 82 -16 12 -32 34
-35 49 -6 24 -27 40 -129 98 -67 38 -183 104 -257 148 -126 73 -137 78 -166
68 -38 -14 -81 -14 -89 -1 -10 17 -27 12 -115 -37z"/>
<path d="M9324 4916 c-249 -143 -246 -141 -258 -178 -7 -20 -22 -38 -38 -46
-26 -12 -28 -18 -28 -72 l0 -58 263 -143 c144 -79 294 -160 332 -181 39 -21
89 -48 111 -60 l42 -21 31 22 c25 18 31 29 31 59 0 56 19 461 24 515 l5 48
-157 103 c-86 56 -162 106 -168 109 -6 3 -91 -40 -190 -97z"/>
<path d="M5815 4931 c-6 -5 -91 -52 -190 -106 -389 -211 -393 -214 -401 -237
-3 -12 -1 -25 7 -33 12 -10 595 -392 624 -408 6 -3 17 -2 24 2 11 7 10 78 -5
400 -16 345 -20 391 -34 391 -9 0 -20 -4 -25 -9z"/>
<path d="M9926 4849 c-26 -18 -51 -41 -55 -53 -14 -38 -35 -610 -22 -614 6 -2
18 -10 26 -18 17 -18 21 -16 245 132 80 52 194 127 253 166 75 49 106 75 103
85 -4 8 -6 27 -6 41 0 23 -10 32 -68 62 -37 20 -144 79 -238 133 -95 53 -176
97 -181 97 -5 0 -31 -14 -57 -31z"/>
<path d="M6871 4562 l-54 -27 7 -464 8 -465 30 -28 31 -28 109 61 c81 46 108
65 104 78 -2 9 -12 66 -21 126 -102 680 -113 746 -131 760 -24 18 -19 19 -83
-13z"/>
<path d="M8871 4569 c-7 -12 -19 -71 -27 -132 -8 -62 -24 -179 -34 -262 -11
-82 -31 -235 -45 -340 -14 -104 -25 -191 -25 -192 0 -1 32 -21 71 -43 59 -35
73 -39 86 -29 8 7 25 18 37 24 20 10 21 18 27 240 4 127 7 338 8 470 l1 240
-37 20 c-21 10 -40 20 -43 21 -4 2 -12 -6 -19 -17z"/>
<path d="M8997 4233 c-4 -157 -7 -366 -7 -464 0 -219 -2 -217 127 -131 173
116 589 389 610 400 18 10 21 18 16 50 -3 20 -13 42 -22 47 -19 12 -91 52
-266 147 -71 39 -157 85 -190 103 -196 107 -249 135 -255 135 -4 0 -10 -129
-13 -287z"/>
<path d="M6555 4389 c-223 -122 -336 -184 -480 -261 -44 -24 -81 -50 -82 -58
-2 -10 67 -61 197 -145 110 -71 246 -160 303 -197 261 -170 243 -161 277 -143
16 8 30 21 30 28 2 53 -3 577 -5 597 -2 14 -4 87 -4 163 -1 75 -4 137 -8 137
-5 -1 -107 -55 -228 -121z"/>
<path d="M7009 3583 c-132 -75 -118 -64 -121 -90 -3 -20 168 -137 824 -561
l96 -63 26 24 c25 24 26 28 26 149 l0 125 -127 84 c-71 45 -211 138 -313 204
-102 67 -210 138 -241 157 l-57 36 -113 -65z"/>
<path d="M8489 3494 c-107 -70 -257 -168 -334 -219 -203 -133 -223 -145 -240
-145 -12 0 -15 -18 -15 -105 l0 -104 35 -17 c31 -14 38 -15 58 -2 12 9 121 80
242 160 235 155 468 307 578 377 94 61 92 76 -17 135 -45 26 -90 46 -98 46 -8
0 -103 -57 -209 -126z"/>
</g>
</svg>
